<?xml version="1.0" standalone="no"?>
<!DOCTYPE svg PUBLIC "-//W3C//DTD SVG 20010904//EN"
 "http://www.w3.org/TR/2001/REC-SVG-20010904/DTD/svg10.dtd">
<svg version="1.0" xmlns="http://www.w3.org/2000/svg"
 width="260.000000pt" height="260.000000pt" viewBox="0 0 260.000000 260.000000"
 preserveAspectRatio="xMidYMid meet">
<metadata>
Created by potrace 1.11, written by Peter Selinger 2001-2013
</metadata>
<g transform="translate(0.000000,260.000000) scale(0.100000,-0.100000)"
fill="#000000" stroke="none">
<path d="M1198 2230 c-153 -40 -245 -122 -283 -254 -42 -145 -7 -273 102 -377
50 -47 64 -69 44 -69 -11 0 -127 -89 -177 -136 -233 -221 -275 -551 -104 -807
106 -159 283 -241 509 -236 305 6 530 193 575 480 47 290 -64 515 -351 716
-37 26 -93 65 -123 86 -185 129 -245 229 -187 314 38 57 109 72 216 47 36 -8
85 -26 109 -39 25 -14 48 -25 51 -25 4 0 16 17 27 38 12 20 38 68 58 106 42
75 43 70 -24 105 -117 61 -316 84 -442 51z m161 -882 c86 -63 145 -130 180
-202 81 -168 49 -377 -71 -475 -78 -63 -238 -78 -332 -31 -102 52 -166 162
-168 294 -3 180 90 313 307 443 27 16 22 18 84 -29z"/>
</g>
</svg>
